<svg width="19" height="18" viewBox="0 0 19 18" fill="none" xmlns="http://www.w3.org/2000/svg">
<path d="M8.44873 11.0768C8.26512 11.0768 8.08903 11.1498 7.95919 11.2796C7.82936 11.4094 7.75642 11.5855 7.75642 11.7691V14.2519L5.30912 11.8037C4.98654 11.4832 4.7308 11.1018 4.5567 10.6817C4.3826 10.2616 4.29361 9.81117 4.29489 9.35643V6.14413C4.94749 5.97562 5.51625 5.57489 5.89453 5.01704C6.27282 4.4592 6.43466 3.78254 6.34974 3.1139C6.26481 2.44526 5.93893 1.83055 5.4332 1.38498C4.92747 0.939423 4.27659 0.693604 3.60258 0.693604C2.92857 0.693604 2.27769 0.939423 1.77196 1.38498C1.26622 1.83055 0.94035 2.44526 0.855422 3.1139C0.770493 3.78254 0.93234 4.4592 1.31063 5.01704C1.68891 5.57489 2.25766 5.97562 2.91027 6.14413V9.3573C2.90866 9.99395 3.03326 10.6246 3.27686 11.2128C3.52046 11.801 3.87824 12.3351 4.3295 12.7842L6.77767 15.2307H4.29489C4.11127 15.2307 3.93518 15.3036 3.80535 15.4334C3.67552 15.5633 3.60258 15.7394 3.60258 15.923C3.60258 16.1066 3.67552 16.2827 3.80535 16.4125C3.93518 16.5423 4.11127 16.6153 4.29489 16.6153H8.44873C8.63234 16.6153 8.80843 16.5423 8.93826 16.4125C9.0681 16.2827 9.14104 16.1066 9.14104 15.923V11.7691C9.14104 11.5855 9.0681 11.4094 8.93826 11.2796C8.80843 11.1498 8.63234 11.0768 8.44873 11.0768ZM2.21796 3.46144C2.21796 3.18759 2.29917 2.91988 2.45131 2.69219C2.60346 2.46449 2.8197 2.28702 3.07271 2.18222C3.32571 2.07742 3.60411 2.05 3.8727 2.10343C4.14129 2.15685 4.38801 2.28872 4.58165 2.48237C4.77529 2.67601 4.90716 2.92272 4.96059 3.19131C5.01401 3.4599 4.98659 3.7383 4.8818 3.9913C4.777 4.24431 4.59953 4.46056 4.37183 4.6127C4.14413 4.76484 3.87643 4.84605 3.60258 4.84605C3.23536 4.84605 2.88317 4.70017 2.62351 4.44051C2.36384 4.18084 2.21796 3.82866 2.21796 3.46144ZM16.7564 11.8557V8.64335C16.758 8.0067 16.6334 7.37604 16.3898 6.78783C16.1462 6.19963 15.7885 5.66553 15.3372 5.21643L12.889 2.76913H15.3718C15.5554 2.76913 15.7315 2.69619 15.8613 2.56636C15.9912 2.43652 16.0641 2.26043 16.0641 2.07682C16.0641 1.89321 15.9912 1.71712 15.8613 1.58729C15.7315 1.45745 15.5554 1.38451 15.3718 1.38451H11.218C11.0343 1.38451 10.8583 1.45745 10.7284 1.58729C10.5986 1.71712 10.5257 1.89321 10.5257 2.07682V6.23066C10.5257 6.41428 10.5986 6.59037 10.7284 6.7202C10.8583 6.85003 11.0343 6.92297 11.218 6.92297C11.4016 6.92297 11.5777 6.85003 11.7075 6.7202C11.8373 6.59037 11.9103 6.41428 11.9103 6.23066V3.74788L14.3576 6.19605C14.6801 6.51658 14.9359 6.89794 15.11 7.31804C15.2841 7.73814 15.3731 8.18861 15.3718 8.64335V11.8557C14.7192 12.0242 14.1504 12.4249 13.7722 12.9827C13.3939 13.5406 13.232 14.2172 13.317 14.8859C13.4019 15.5545 13.7278 16.1692 14.2335 16.6148C14.7392 17.0604 15.3901 17.3062 16.0641 17.3062C16.7381 17.3062 17.389 17.0604 17.8947 16.6148C18.4005 16.1692 18.7263 15.5545 18.8113 14.8859C18.8962 14.2172 18.7343 13.5406 18.3561 12.9827C17.9778 12.4249 17.409 12.0242 16.7564 11.8557ZM16.0641 15.923C15.7903 15.923 15.5226 15.8418 15.2949 15.6896C15.0672 15.5375 14.8897 15.3212 14.7849 15.0682C14.6801 14.8152 14.6527 14.5368 14.7061 14.2682C14.7595 13.9996 14.8914 13.7529 15.085 13.5593C15.2787 13.3656 15.5254 13.2338 15.794 13.1803C16.0626 13.1269 16.341 13.1543 16.594 13.2591C16.847 13.3639 17.0632 13.5414 17.2154 13.7691C17.3675 13.9968 17.4487 14.2645 17.4487 14.5384C17.4487 14.9056 17.3028 15.2578 17.0432 15.5174C16.7835 15.7771 16.4313 15.923 16.0641 15.923Z" fill="#E30613"/>
</svg>
