<svg width="15" height="12" viewBox="0 0 15 12" fill="none" xmlns="http://www.w3.org/2000/svg">
<path d="M4.57141 1.42847H13.7143M4.57141 5.99761H10.2857M4.57141 10.5713H13.7143" stroke="white" stroke-width="1.14286" stroke-linecap="round" stroke-linejoin="round"/>
<path fill-rule="evenodd" clip-rule="evenodd" d="M1.14171 2.57136C1.71314 2.57136 2.28457 1.99993 2.28457 1.4285C2.28457 0.857073 1.71314 0.285645 1.14171 0.285645C0.570286 0.285645 0 0.857073 0 1.4285C0 1.99993 0.570286 2.57136 1.14171 2.57136ZM1.14171 7.14279C1.71314 7.14279 2.28457 6.57136 2.28457 5.99993C2.28457 5.4285 1.71314 4.85707 1.14171 4.85707C0.570286 4.85707 0 5.4285 0 5.99993C0 6.57136 0.570286 7.14279 1.14171 7.14279ZM1.14171 11.7142C1.71314 11.7142 2.28457 11.1428 2.28457 10.5714C2.28457 9.99993 1.71314 9.4285 1.14171 9.4285C0.570286 9.4285 0 9.99993 0 10.5714C0 11.1428 0.570286 11.7142 1.14171 11.7142Z" fill="white"/>
</svg>
