<svg width="16" height="17" viewBox="0 0 16 17" fill="none" xmlns="http://www.w3.org/2000/svg">
<path d="M14.6555 11.32L10.9649 9.66609C10.7976 9.59444 10.6152 9.56563 10.434 9.58227C10.2529 9.59891 10.0787 9.66048 9.92735 9.7614C9.91199 9.77126 9.89737 9.78222 9.8836 9.79421L7.9547 11.4348C7.93468 11.4457 7.9124 11.4519 7.88962 11.4527C7.86684 11.4535 7.84419 11.449 7.82345 11.4395C6.5836 10.8411 5.29923 9.56452 4.69845 8.34187C4.68844 8.32144 4.68324 8.29899 4.68324 8.27624C4.68324 8.25349 4.68844 8.23105 4.69845 8.21062L6.34454 6.25749C6.35635 6.24304 6.36731 6.22791 6.37735 6.21218C6.47687 6.06023 6.53699 5.88589 6.55226 5.70489C6.56754 5.52389 6.5375 5.34194 6.46485 5.17546L4.82267 1.49108C4.72941 1.27359 4.56812 1.09221 4.36302 0.974167C4.15793 0.856122 3.92007 0.80778 3.68517 0.836397C2.66425 0.970613 1.72713 1.47197 1.04893 2.24679C0.370737 3.0216 -0.002131 4.01685 9.16201e-06 5.04655C9.16201e-06 11.1637 4.97657 16.1403 11.0938 16.1403C12.1234 16.1423 13.1186 15.7694 13.8934 15.0912C14.6681 14.413 15.1695 13.476 15.3039 12.4551C15.3325 12.2213 15.2848 11.9846 15.168 11.78C15.0511 11.5755 14.8714 11.4142 14.6555 11.32ZM11.0938 15.2028C5.49376 15.2028 0.937509 10.6466 0.937509 5.04655C0.934897 4.24494 1.22423 3.46979 1.75145 2.86594C2.27867 2.26208 3.00771 1.87084 3.80235 1.7653H3.82032C3.8518 1.76589 3.88238 1.77598 3.90803 1.79424C3.93368 1.8125 3.95321 1.83809 3.96407 1.86765L5.61251 5.54812C5.62191 5.56858 5.62678 5.59083 5.62678 5.61335C5.62678 5.63587 5.62191 5.65812 5.61251 5.67858L3.96329 7.6364C3.95099 7.65037 3.93976 7.66526 3.9297 7.68093C3.8265 7.83847 3.76573 8.02 3.75327 8.20792C3.74082 8.39584 3.7771 8.5838 3.8586 8.75358C4.55157 10.1723 5.98126 11.5911 7.41563 12.2841C7.58641 12.3651 7.77528 12.4005 7.96382 12.3868C8.15237 12.3731 8.33414 12.3108 8.49142 12.2059C8.50626 12.1958 8.5211 12.1848 8.53516 12.1731L10.4633 10.5325C10.4823 10.5223 10.5034 10.5163 10.5249 10.5149C10.5465 10.5136 10.5681 10.5169 10.5883 10.5247L14.2797 12.1786C14.3098 12.1914 14.3352 12.2134 14.3522 12.2415C14.3691 12.2695 14.3768 12.3022 14.3742 12.3348C14.2692 13.1298 13.8784 13.8594 13.2746 14.3872C12.6709 14.915 11.8957 15.205 11.0938 15.2028Z" fill="#232323"/>
</svg>
